<svg width="449" height="103" viewBox="0 0 449 103" fill="none" xmlns="http://www.w3.org/2000/svg">
<rect width="449" height="103" rx="12" fill="url(#paint0_linear_1185_9170)" fill-opacity="0.6"/>
<g clip-path="url(#clip0_1185_9170)">
<mask id="mask0_1185_9170" style="mask-type:luminance" maskUnits="userSpaceOnUse" x="20" y="27" width="104" height="43">
<path d="M123.752 27H20V69.5613H123.752V27Z" fill="white"/>
</mask>
<g mask="url(#mask0_1185_9170)">
<path d="M37.2661 48.5049C37.0236 48.2663 36.1365 49.0906 35.911 49.2868C33.6438 51.2597 28.7537 57.3239 34.6422 57.922C42.6875 58.7392 57.6747 50.9668 62.9615 44.8373C66.7746 40.4163 66.3848 36.9852 60.9592 34.5544C55.7869 32.2371 49.6316 32.4717 44.0841 32.5764C43.7843 32.6775 43.5759 33.074 43.4262 33.3481C42.184 35.6219 40.6604 40.4403 39.9368 43.0318C39.7722 43.6215 39.5388 44.2135 39.5856 44.8348C39.7528 45.0144 42.1737 43.5155 42.5441 43.3259C43.4015 42.8872 44.2897 42.4619 45.1644 42.0609C46.5391 41.4305 50.0087 39.7709 51.2983 39.5175C51.9751 39.3846 52.3042 40.0944 52.0574 40.4926C51.9402 40.6816 48.5328 41.9539 47.9977 42.192C45.5751 43.2702 42.3451 44.5738 40.189 46.0398C39.5649 46.4642 38.9848 46.8318 38.7192 47.558C38.1192 49.1989 37.7205 52.155 37.4168 53.9635C37.3083 54.6089 37.4464 56.288 36.5787 56.207C36.191 56.0852 35.9168 55.836 35.9669 55.3852L37.2661 48.5049ZM44.6119 31.2046L46.5986 31.346C49.8827 31.2915 53.2546 31.4078 56.4826 32.0335C62.404 33.1815 69.8165 36.9203 65.166 44.0666C60.8118 50.7573 46.7669 57.7041 39.0967 58.9482C34.5245 59.6897 28.5038 58.9401 31.4943 52.6548C32.8885 49.7244 35.7258 48.1415 37.8916 45.93C38.8635 41.8667 40.515 38.0461 41.8727 34.1261C42.0611 33.5818 42.4681 32.8405 41.5817 32.7695C41.2722 32.7448 40.4333 32.8845 40.0522 32.9292C35.1428 33.503 24.4782 36.1324 21.6804 40.574C21.356 41.0888 21.0372 41.5908 21.2266 42.2211C21.3185 42.5272 22.2184 43.645 21.3044 43.8673C20.4902 44.0653 20.001 42.5549 20 41.8875C19.9941 37.9129 27.6522 34.785 30.7286 33.7946C34.6219 32.541 37.8767 32.2318 41.8251 31.5882C42.0654 31.5491 42.5401 31.4525 42.7269 31.3266C43.4067 30.868 44.3777 27.1855 44.822 27.0337C45.2397 26.9112 45.5854 27.1329 45.7081 27.5336C46.15 28.9768 44.4391 29.7527 44.6119 31.2046Z" fill="#ECE5C9"/>
<path d="M92.577 27.3058C92.9185 27.7075 92.0103 29.5734 91.7686 30.0665C91.5783 30.4542 91.2662 31.1765 90.973 31.4562C90.7157 31.7015 90.4257 31.6418 90.2825 31.7943C89.7304 32.3812 87.9817 36.8212 87.526 37.8939C85.9199 41.6766 82.2258 50.045 82.1512 53.8697C82.1341 54.7397 82.6144 54.9262 82.6267 55.0387C82.7474 56.1655 81.3921 56.2499 81.07 54.927C80.7156 53.4748 81.5337 51.2275 81.9491 49.775C82.4686 47.9604 83.1173 46.1709 83.7204 44.3859C83.5075 44.2953 83.4523 44.4412 83.3102 44.5233C82.5528 44.9609 81.7288 45.736 80.9236 46.2262C78.3365 47.802 75.3864 49.256 75.3698 44.6806C75.3682 44.2439 75.4207 43.4307 75.4668 42.9832C75.4808 42.8476 75.9 41.9111 75.5338 42.0087C73.8055 43.6915 72.4283 45.7665 70.5673 47.3128C69.8386 47.9183 68.9913 48.7872 68.1357 47.889C66.734 46.4175 68.4959 42.2466 69.3121 40.6758C69.611 40.1004 70.728 38.0588 71.2601 37.9126C71.8797 37.7422 72.4266 38.2772 72.2368 38.9193C72.1759 39.1252 71.0538 40.3979 70.7948 40.8334C70.0701 42.0517 68.9316 44.7605 68.8993 46.1476C68.8948 46.3396 68.865 46.4875 69.0384 46.6234C69.375 46.7804 69.9915 46.0416 70.2491 45.8017C71.8699 44.2925 73.2422 42.4045 74.7967 40.8562C75.2787 40.376 75.8791 39.5492 76.6221 40.0141C76.7802 40.1131 77.1512 40.5686 77.1769 40.7509C77.3147 41.7252 76.6355 43.9375 76.6071 45.1261C76.5754 46.4756 77.0686 46.6241 78.2502 46.306C79.4478 45.9836 83.1124 43.6175 84.0227 42.7112C84.8333 41.9037 86.271 37.4806 86.8688 36.0782C87.845 33.7909 88.989 31.0954 90.3088 29.0144C90.638 28.4949 91.8318 26.4293 92.577 27.3058Z" fill="#ECE5C9"/>
<path d="M95.3394 42.5852C95.3817 42.5232 95.4241 42.4615 95.4664 42.4C93.2331 43.0512 90.469 43.643 88.425 43.8946C87.4429 44.0155 86.2415 44.2536 85.3403 43.7597C85.3361 43.4917 85.373 43.2019 85.4476 42.945C85.9161 41.3361 90.3726 37.5364 91.9524 36.9501C92.6375 36.6958 93.6105 36.8858 93.261 35.5641C92.9892 34.5348 91.9529 35.2798 91.404 35.5898C89.2521 36.8047 84.1465 41.07 84.0269 43.6625C83.969 44.9112 85.5467 45.0651 86.4811 45.1181C89.3224 45.2793 92.4745 44.2568 95.3501 43.4482C95.1823 43.2134 95.1319 42.8885 95.3394 42.5852Z" fill="#ECE5C9"/>
<path d="M98.7122 39.3969C98.992 39.1725 100.451 38.1454 100.731 38.5689C100.442 39.379 99.7452 40.01 99.1174 40.5528C98.8564 40.7787 96.4612 42.6043 96.251 42.2664C96.8922 41.2633 97.7847 40.141 98.7122 39.3969ZM95.4785 40.9443C94.6578 42.2764 93.5443 43.945 94.2284 45.5593C95.434 48.4029 100.289 46.4018 102.318 45.5207C103.149 45.1597 107.577 42.9302 107.725 42.2539C107.723 41.9188 107.531 41.6454 107.177 41.7253C106.962 41.7738 105.588 42.707 105.211 42.9046C103.324 43.8925 98.375 46.3671 96.3561 45.8215C95.3852 45.559 95.1081 44.3218 95.6533 43.5323C95.8055 43.3111 98.049 42.3697 98.5304 42.0917C99.8256 41.3432 103.01 39.1186 102.191 37.3037C101.547 35.8757 99.8471 36.7178 98.2479 37.874C96.6488 39.0302 95.4785 40.9443 95.4785 40.9443Z" fill="#ECE5C9"/>
<path d="M115.007 45.2176C114.741 45.1897 114.552 45.3924 114.361 45.5421C113.774 46.0025 112.731 47.2201 112.237 47.8356C111.61 48.6151 110.919 49.4826 110.629 50.4571C110.937 50.7628 112.83 48.705 113.072 48.4236C113.385 48.0598 115.32 45.55 115.007 45.2176ZM112.529 34.625C112.936 34.5572 113.374 34.891 113.317 35.2942C113.207 36.0691 110.708 37.3958 111.239 38.6313C111.479 39.1878 113.797 40.0333 114.482 40.445C115.126 40.8318 115.772 41.3404 116.298 41.8829C116.582 42.0261 117.964 41.0178 118.353 40.8249C119.431 40.2901 122.312 39.0909 123.422 39.4735C123.827 39.6131 123.916 40.1879 123.378 40.4345C121.409 41.3367 119.233 41.3157 117.393 42.9928C116.685 43.6381 116.619 44.8626 116.265 45.7754C115.552 47.6107 113.501 50.5189 111.747 51.3992C110.873 51.8377 109.346 52.1682 109.214 50.7735C109.087 49.4265 111.338 46.8587 112.237 45.8702C112.672 45.3912 115.065 43.2041 115.108 42.901C115.331 41.3547 110.228 40.5199 109.883 38.6991C109.666 37.5571 111.424 34.8097 112.529 34.625Z" fill="#ECE5C9"/>
<path d="M107.794 32.8921C107.704 33.1892 107.108 33.1532 106.885 32.8996C106.371 32.3138 106.765 29.8183 106.953 29.022C107.074 28.5036 107.271 27.4661 107.92 27.7855C109.11 28.3712 107.794 30.0147 107.794 30.6647C107.794 31.1405 107.891 32.5757 107.794 32.8921Z" fill="#ECE5C9"/>
<path d="M45.6956 65.668L45.4021 66.3026C44.9468 66.0219 44.4915 65.9059 44.1742 65.9059C43.7608 65.9059 43.4912 66.0646 43.4912 66.3515C43.4912 67.2851 45.7554 66.7847 45.7495 68.3224C45.7495 69.0853 45.0906 69.5552 44.1681 69.5552C43.5093 69.5552 42.8864 69.2805 42.4551 68.8777L42.7605 68.2553C43.1918 68.6581 43.7309 68.8777 44.1801 68.8777C44.6713 68.8777 44.9649 68.6886 44.9649 68.3591C44.9649 67.4071 42.7007 67.938 42.7007 66.4185C42.7007 65.6863 43.3175 65.2285 44.2281 65.2285C44.7731 65.2285 45.3062 65.4056 45.6956 65.668Z" fill="white"/>
<path d="M51.81 69.3235C51.5584 69.4761 51.2948 69.5615 51.0254 69.5615C50.5462 69.5615 50.1328 69.2808 50.1328 68.6157V66.9314H49.6836V66.4066H50.1328V65.5156H50.8157V66.4066H51.7561V66.9314H50.8157V68.4875C50.8157 68.8232 50.9415 68.9269 51.1571 68.9269C51.3008 68.9269 51.4506 68.878 51.6363 68.7865L51.81 69.3235Z" fill="white"/>
<path d="M58.0898 67.6632C58.0657 67.1386 57.7243 66.8211 57.2032 66.8211C56.7 66.8211 56.3467 67.1445 56.2687 67.6632H58.0898ZM58.6887 68.1759H56.2807C56.3886 68.6762 56.766 68.9875 57.2691 68.9875C57.6166 68.9875 57.934 68.8532 58.1676 68.6091L58.5329 69.0057C58.2214 69.3536 57.7662 69.555 57.2152 69.555C56.2328 69.555 55.5859 68.8898 55.5859 67.9135C55.5859 66.931 56.2508 66.2658 57.1971 66.2598C58.3173 66.2598 58.7726 67.0042 58.6887 68.1759Z" fill="white"/>
<path d="M64.7856 68.3894V68.0903H63.923C63.4737 68.0903 63.2642 68.2125 63.2642 68.5237C63.2642 68.8166 63.4978 69.0057 63.8812 69.0057C64.3722 69.0057 64.7495 68.7433 64.7856 68.3894ZM64.7915 69.1339C64.564 69.4207 64.1985 69.561 63.7373 69.561C63.0485 69.561 62.6172 69.1278 62.6172 68.5542C62.6172 67.9622 63.0545 67.584 63.8212 67.5778H64.7856V67.4801C64.7856 67.0713 64.528 66.8272 64.0248 66.8272C63.7193 66.8272 63.4019 66.937 63.0844 67.1568L62.8029 66.6686C63.2462 66.4 63.5696 66.2598 64.1746 66.2598C64.9952 66.2598 65.4564 66.6868 65.4623 67.4008L65.4684 69.5306H64.7915V69.1339Z" fill="white"/>
<path d="M70.5853 68.6218V69.531H69.8965V65.0029H70.5853V67.7368L71.9928 66.2846H72.7837L71.6036 67.5416L72.8735 69.531H72.0588L71.1244 68.042L70.5853 68.6218Z" fill="white"/>
<path d="M79.9901 67.5111V69.531H79.3013V67.7064C79.3013 67.2181 79.0139 66.9191 78.5347 66.9191C77.9659 66.9252 77.6244 67.3586 77.6244 67.9321V69.531H76.9355V65.0029H77.6244V66.9191C77.8522 66.4614 78.2591 66.2602 78.8043 66.2602C79.5473 66.2602 79.9901 66.7361 79.9901 67.5111Z" fill="white"/>
<path d="M84.777 67.9135C84.777 68.5419 85.178 68.9691 85.7532 68.9691C86.322 68.9691 86.7235 68.5419 86.7235 67.9135C86.7235 67.291 86.322 66.8638 85.7532 66.8638C85.178 66.8638 84.777 67.291 84.777 67.9135ZM87.4124 67.9073C87.4124 68.8837 86.7353 69.555 85.7532 69.555C84.7647 69.555 84.0881 68.8837 84.0881 67.9073C84.0881 66.9248 84.7647 66.2598 85.7532 66.2598C86.7353 66.2598 87.4124 66.9248 87.4124 67.9073Z" fill="white"/>
<path d="M94.4985 69.5306H93.8096V68.896C93.5941 69.3476 93.1931 69.5488 92.672 69.555C91.9408 69.555 91.5039 69.079 91.5039 68.304V66.2842H92.1928V68.1087C92.1928 68.5969 92.4742 68.896 92.9352 68.896C93.4863 68.8837 93.8096 68.4504 93.8096 67.883V66.2842H94.4985V69.5306Z" fill="white"/>
<path d="M101.059 66.5834L100.807 67.1022C100.526 66.9251 100.173 66.8153 99.8911 66.8153C99.6215 66.8153 99.4237 66.9069 99.4237 67.1389C99.4237 67.7367 101.119 67.4134 101.113 68.5911C101.113 69.2563 100.532 69.5553 99.8911 69.5553C99.4237 69.5553 98.9267 69.3966 98.6094 69.1037L98.8549 68.6034C99.1304 68.8535 99.5738 69.006 99.9212 69.006C100.214 69.006 100.442 68.9023 100.442 68.6582C100.442 67.9931 98.7648 68.3654 98.7707 67.1937C98.7707 66.5346 99.3342 66.2539 99.9448 66.2539C100.346 66.2539 100.772 66.376 101.059 66.5834Z" fill="white"/>
<path d="M107.486 67.6632C107.462 67.1386 107.121 66.8211 106.6 66.8211C106.096 66.8211 105.743 67.1445 105.665 67.6632H107.486ZM108.085 68.1759H105.677C105.785 68.6762 106.162 68.9875 106.666 68.9875C107.013 68.9875 107.33 68.8532 107.564 68.6091L107.929 69.0057C107.618 69.3536 107.163 69.555 106.612 69.555C105.629 69.555 104.982 68.8898 104.982 67.9135C104.982 66.931 105.647 66.2658 106.594 66.2598C107.714 66.2598 108.169 67.0042 108.085 68.1759Z" fill="white"/>
</g>
</g>
<path d="M141.547 47V26.375H144.688V44.3281H148.66V47H141.547ZM154.461 47.2344C153.391 47.2344 152.516 47.0078 151.836 46.5547C151.164 46.1016 150.668 45.4297 150.348 44.5391C150.027 43.6484 149.867 42.5469 149.867 41.2344V31.8008C149.867 30.6133 150.023 29.5977 150.336 28.7539C150.648 27.9102 151.145 27.2617 151.824 26.8086C152.504 26.3555 153.395 26.1289 154.496 26.1289C155.324 26.1289 156.023 26.2578 156.594 26.5156C157.164 26.7734 157.625 27.1484 157.977 27.6406C158.328 28.125 158.582 28.7188 158.738 29.4219C158.902 30.1172 158.984 30.9102 158.984 31.8008V41.2344C158.984 42.5469 158.828 43.6484 158.516 44.5391C158.211 45.4297 157.727 46.1016 157.062 46.5547C156.398 47.0078 155.531 47.2344 154.461 47.2344ZM154.461 44.5156C154.852 44.5156 155.145 44.3984 155.34 44.1641C155.535 43.9297 155.664 43.5742 155.727 43.0977C155.797 42.6133 155.832 42.0039 155.832 41.2695V31.6602C155.832 30.7617 155.746 30.0703 155.574 29.5859C155.41 29.0938 155.051 28.8477 154.496 28.8477C153.926 28.8477 153.539 29.0859 153.336 29.5625C153.133 30.0312 153.031 30.7266 153.031 31.6484V41.2695C153.031 42.0195 153.062 42.6367 153.125 43.1211C153.195 43.5977 153.332 43.9492 153.535 44.1758C153.746 44.4023 154.055 44.5156 154.461 44.5156ZM166.074 47.2344C165.074 47.2344 164.242 47.0039 163.578 46.543C162.914 46.082 162.414 45.4102 162.078 44.5273C161.75 43.6367 161.586 42.5625 161.586 41.3047V32.3164C161.586 31.3711 161.664 30.5195 161.82 29.7617C161.977 29.0039 162.23 28.3555 162.582 27.8164C162.934 27.2773 163.402 26.8633 163.988 26.5742C164.574 26.2852 165.297 26.1406 166.156 26.1406C166.938 26.1406 167.602 26.2695 168.148 26.5273C168.703 26.7773 169.152 27.1406 169.496 27.6172C169.848 28.0938 170.102 28.6719 170.258 29.3516C170.422 30.0234 170.504 30.7812 170.504 31.625V34.4609H167.469V31.8242C167.469 30.8086 167.383 30.0625 167.211 29.5859C167.039 29.1016 166.695 28.8594 166.18 28.8594C165.609 28.8594 165.227 29.1211 165.031 29.6445C164.844 30.1602 164.75 30.8828 164.75 31.8125V41.4453C164.75 42.1641 164.789 42.7539 164.867 43.2148C164.953 43.668 165.094 44.0039 165.289 44.2227C165.484 44.4336 165.758 44.5391 166.109 44.5391C166.641 44.5391 167 44.2891 167.188 43.7891C167.375 43.2891 167.469 42.4961 167.469 41.4102V38.457H170.551V41.375C170.551 42.6797 170.398 43.7695 170.094 44.6445C169.789 45.5117 169.305 46.1602 168.641 46.5898C167.984 47.0195 167.129 47.2344 166.074 47.2344ZM171.992 47L174.934 26.375H179.082L182.211 47H179.281L178.789 43.3203H175.461L175.016 47H171.992ZM175.766 40.8008H178.461L177.078 30.4414H177.031L175.766 40.8008ZM184.578 47V29.0938H182.164V26.375H190.027V29.0938H187.707V47H184.578ZM191.867 47V26.375H195.008V47H191.867ZM202.508 47.2344C201.438 47.2344 200.562 47.0078 199.883 46.5547C199.211 46.1016 198.715 45.4297 198.395 44.5391C198.074 43.6484 197.914 42.5469 197.914 41.2344V31.8008C197.914 30.6133 198.07 29.5977 198.383 28.7539C198.695 27.9102 199.191 27.2617 199.871 26.8086C200.551 26.3555 201.441 26.1289 202.543 26.1289C203.371 26.1289 204.07 26.2578 204.641 26.5156C205.211 26.7734 205.672 27.1484 206.023 27.6406C206.375 28.125 206.629 28.7188 206.785 29.4219C206.949 30.1172 207.031 30.9102 207.031 31.8008V41.2344C207.031 42.5469 206.875 43.6484 206.562 44.5391C206.258 45.4297 205.773 46.1016 205.109 46.5547C204.445 47.0078 203.578 47.2344 202.508 47.2344ZM202.508 44.5156C202.898 44.5156 203.191 44.3984 203.387 44.1641C203.582 43.9297 203.711 43.5742 203.773 43.0977C203.844 42.6133 203.879 42.0039 203.879 41.2695V31.6602C203.879 30.7617 203.793 30.0703 203.621 29.5859C203.457 29.0938 203.098 28.8477 202.543 28.8477C201.973 28.8477 201.586 29.0859 201.383 29.5625C201.18 30.0312 201.078 30.7266 201.078 31.6484V41.2695C201.078 42.0195 201.109 42.6367 201.172 43.1211C201.242 43.5977 201.379 43.9492 201.582 44.1758C201.793 44.4023 202.102 44.5156 202.508 44.5156ZM209.891 47V26.375H212.352L216.723 38.75L216.5 33.125V26.375H219.324V47H217.098L212.609 34.1914L212.785 39.6055V47H209.891Z" fill="white"/>
<path d="M148 66.5C149.105 66.5 150 65.6046 150 64.5C150 63.3954 149.105 62.5 148 62.5C146.895 62.5 146 63.3954 146 64.5C146 65.6046 146.895 66.5 148 66.5Z" stroke="white" stroke-width="2" stroke-linecap="round" stroke-linejoin="round"/>
<path d="M153 64.5C153 69 148 72.5 148 72.5C148 72.5 143 69 143 64.5C143 63.1739 143.527 61.9021 144.464 60.9645C145.402 60.0268 146.674 59.5 148 59.5C149.326 59.5 150.598 60.0268 151.536 60.9645C152.473 61.9021 153 63.1739 153 64.5V64.5Z" stroke="white" stroke-width="2" stroke-linecap="round" stroke-linejoin="round"/>
<path d="M161.932 58.4545H163.466L168.743 71.125H168.871L174.148 58.4545H175.682V73H174.432V61.2599H174.318L169.411 73H168.203L163.295 61.2599H163.182V73H161.932V58.4545ZM183.697 73.2273C182.679 73.2273 181.798 72.9905 181.055 72.517C180.311 72.0388 179.736 71.3783 179.329 70.5355C178.926 69.688 178.725 68.7126 178.725 67.6094C178.725 66.5109 178.926 65.5355 179.329 64.6832C179.736 63.8262 180.297 63.1562 181.012 62.6733C181.732 62.1856 182.563 61.9418 183.505 61.9418C184.097 61.9418 184.667 62.0507 185.217 62.2685C185.766 62.4815 186.258 62.8106 186.694 63.2557C187.134 63.696 187.482 64.2524 187.738 64.9247C187.994 65.5923 188.121 66.383 188.121 67.2969V67.9219H179.599V66.8068H186.829C186.829 66.1061 186.687 65.4763 186.403 64.9176C186.123 64.3542 185.733 63.9091 185.231 63.5824C184.734 63.2557 184.158 63.0923 183.505 63.0923C182.814 63.0923 182.205 63.277 181.68 63.6463C181.154 64.0156 180.742 64.5033 180.444 65.1094C180.15 65.7154 180.001 66.3783 179.996 67.098V67.7656C179.996 68.6321 180.146 69.3897 180.444 70.0384C180.747 70.6823 181.175 71.1818 181.729 71.5369C182.283 71.892 182.939 72.0696 183.697 72.0696C184.213 72.0696 184.665 71.9891 185.053 71.8281C185.446 71.6671 185.775 71.4517 186.04 71.1818C186.31 70.9072 186.514 70.6065 186.651 70.2798L187.852 70.6705C187.686 71.1297 187.414 71.5535 187.035 71.9418C186.661 72.33 186.192 72.6425 185.629 72.8793C185.07 73.1113 184.426 73.2273 183.697 73.2273ZM195.204 62.0909V63.1918H189.998V62.0909H195.204ZM191.625 59.4773H192.896V70.152C192.896 70.6065 192.974 70.964 193.13 71.2244C193.287 71.4801 193.49 71.6624 193.741 71.7713C193.992 71.8755 194.26 71.9276 194.544 71.9276C194.709 71.9276 194.851 71.9181 194.97 71.8991C195.088 71.8755 195.192 71.8518 195.282 71.8281L195.552 72.9716C195.429 73.0189 195.278 73.0616 195.098 73.0994C194.918 73.142 194.695 73.1634 194.43 73.1634C193.966 73.1634 193.519 73.0616 193.088 72.858C192.662 72.6544 192.311 72.3513 192.037 71.9489C191.762 71.5464 191.625 71.0469 191.625 70.4503V59.4773ZM205.007 68.831V62.0909H206.271V73H205.007V71.1889H204.908C204.652 71.7476 204.247 72.214 203.693 72.5881C203.139 72.9574 202.462 73.142 201.662 73.142C200.966 73.142 200.348 72.9905 199.808 72.6875C199.268 72.3797 198.845 71.9299 198.537 71.3381C198.229 70.7462 198.075 70.0194 198.075 69.1577V62.0909H199.339V69.0795C199.339 69.9318 199.59 70.6184 200.092 71.1392C200.594 71.6553 201.238 71.9134 202.024 71.9134C202.517 71.9134 202.99 71.795 203.445 71.5582C203.899 71.3215 204.273 70.9759 204.567 70.5213C204.86 70.062 205.007 69.4986 205.007 68.831ZM213.88 73.2273C212.904 73.2273 212.054 72.9834 211.33 72.4957C210.61 72.008 210.051 71.3404 209.654 70.4929C209.256 69.6454 209.057 68.6795 209.057 67.5952C209.057 66.5014 209.258 65.5284 209.661 64.6761C210.068 63.8239 210.632 63.1562 211.351 62.6733C212.071 62.1856 212.907 61.9418 213.858 61.9418C214.587 61.9418 215.248 62.0838 215.84 62.3679C216.432 62.6473 216.919 63.0426 217.303 63.554C217.691 64.0606 217.935 64.6525 218.034 65.3295H216.756C216.623 64.714 216.304 64.1884 215.797 63.7528C215.295 63.3125 214.656 63.0923 213.88 63.0923C213.184 63.0923 212.568 63.2817 212.033 63.6605C211.498 64.0346 211.079 64.5578 210.776 65.2301C210.478 65.8977 210.328 66.6719 210.328 67.5526C210.328 68.438 210.475 69.2216 210.769 69.9034C211.062 70.5805 211.474 71.1108 212.005 71.4943C212.54 71.8778 213.165 72.0696 213.88 72.0696C214.363 72.0696 214.803 71.9796 215.201 71.7997C215.603 71.6151 215.939 71.3546 216.209 71.0185C216.484 70.6823 216.668 70.2822 216.763 69.8182H218.042C217.947 70.4763 217.712 71.0634 217.338 71.5795C216.969 72.0909 216.489 72.4934 215.897 72.7869C215.31 73.0805 214.637 73.2273 213.88 73.2273ZM222.015 66.1818V73H220.751V58.4545H222.015V63.8026H222.129C222.385 63.2391 222.78 62.7893 223.315 62.4531C223.855 62.117 224.537 61.9489 225.36 61.9489C226.099 61.9489 226.748 62.1004 227.306 62.4034C227.865 62.7064 228.301 63.1539 228.613 63.7457C228.926 64.3376 229.082 65.0668 229.082 65.9332V73H227.811V66.0114C227.811 65.1117 227.56 64.4039 227.058 63.8878C226.561 63.367 225.888 63.1065 225.041 63.1065C224.458 63.1065 223.94 63.2296 223.485 63.4759C223.031 63.7221 222.671 64.0772 222.406 64.5412C222.145 65.0005 222.015 65.5473 222.015 66.1818ZM236.822 73.2273C235.804 73.2273 234.923 72.9905 234.18 72.517C233.436 72.0388 232.861 71.3783 232.454 70.5355C232.051 69.688 231.85 68.7126 231.85 67.6094C231.85 66.5109 232.051 65.5355 232.454 64.6832C232.861 63.8262 233.422 63.1562 234.137 62.6733C234.857 62.1856 235.688 61.9418 236.63 61.9418C237.222 61.9418 237.792 62.0507 238.342 62.2685C238.891 62.4815 239.383 62.8106 239.819 63.2557C240.259 63.696 240.607 64.2524 240.863 64.9247C241.119 65.5923 241.246 66.383 241.246 67.2969V67.9219H232.724V66.8068H239.954C239.954 66.1061 239.812 65.4763 239.528 64.9176C239.248 64.3542 238.858 63.9091 238.356 63.5824C237.859 63.2557 237.283 63.0923 236.63 63.0923C235.939 63.0923 235.33 63.277 234.805 63.6463C234.279 64.0156 233.867 64.5033 233.569 65.1094C233.275 65.7154 233.126 66.3783 233.121 67.098V67.7656C233.121 68.6321 233.271 69.3897 233.569 70.0384C233.872 70.6823 234.3 71.1818 234.854 71.5369C235.408 71.892 236.064 72.0696 236.822 72.0696C237.338 72.0696 237.79 71.9891 238.178 71.8281C238.571 71.6671 238.9 71.4517 239.165 71.1818C239.435 70.9072 239.639 70.6065 239.776 70.2798L240.977 70.6705C240.811 71.1297 240.539 71.5535 240.16 71.9418C239.786 72.33 239.317 72.6425 238.754 72.8793C238.195 73.1113 237.551 73.2273 236.822 73.2273ZM245.297 66.1818V73H244.032V62.0909H245.261V63.8026H245.375C245.63 63.2438 246.028 62.7964 246.568 62.4602C247.112 62.1193 247.785 61.9489 248.585 61.9489C249.319 61.9489 249.963 62.1027 250.517 62.4105C251.075 62.7135 251.509 63.161 251.816 63.7528C252.129 64.3447 252.285 65.0715 252.285 65.9332V73H251.021V66.0114C251.021 65.1165 250.77 64.4086 250.268 63.8878C249.771 63.367 249.103 63.1065 248.265 63.1065C247.692 63.1065 247.183 63.2296 246.738 63.4759C246.293 63.7221 245.94 64.0772 245.68 64.5412C245.424 65.0005 245.297 65.5473 245.297 66.1818ZM257.717 71.0114L257.589 71.7713C257.508 72.2827 257.395 72.8461 257.248 73.4616C257.101 74.0772 256.95 74.6619 256.793 75.2159C256.637 75.7699 256.502 76.215 256.388 76.5511H255.415C255.477 76.2292 255.555 75.8196 255.65 75.3224C255.749 74.8253 255.851 74.2737 255.955 73.6676C256.059 73.0663 256.154 72.446 256.239 71.8068L256.339 71.0114H257.717ZM278.279 58.4545V73H276.987L268.393 60.8196H268.279V73H266.951V58.4545H268.237L276.859 70.6491H276.973V58.4545H278.279ZM287.658 58.4545H288.986V68.9446C288.981 69.8916 288.811 70.6823 288.475 71.3168C288.139 71.9465 287.675 72.4176 287.083 72.7301C286.491 73.0426 285.811 73.1989 285.044 73.1989C284.292 73.1989 283.619 73.0592 283.027 72.7798C282.435 72.5005 281.969 72.1075 281.628 71.6009C281.292 71.0942 281.124 70.5 281.124 69.8182H282.431C282.431 70.2491 282.544 70.6302 282.772 70.9616C282.999 71.2884 283.309 71.544 283.702 71.7287C284.1 71.9134 284.547 72.0057 285.044 72.0057C285.56 72.0057 286.013 71.8968 286.401 71.679C286.794 71.4612 287.102 71.1274 287.324 70.6776C287.547 70.223 287.658 69.6454 287.658 68.9446V58.4545ZM294.006 71.0114L293.878 71.7713C293.797 72.2827 293.684 72.8461 293.537 73.4616C293.39 74.0772 293.239 74.6619 293.082 75.2159C292.926 75.7699 292.791 76.215 292.678 76.5511H291.705C291.766 76.2292 291.844 75.8196 291.939 75.3224C292.038 74.8253 292.14 74.2737 292.244 73.6676C292.348 73.0663 292.443 72.446 292.528 71.8068L292.628 71.0114H294.006ZM312.935 58.4545H314.263V68.0852C314.263 69.0748 314.031 69.9602 313.567 70.7415C313.103 71.518 312.457 72.1312 311.628 72.581C310.804 73.026 309.846 73.2486 308.752 73.2486C307.663 73.2486 306.704 73.0237 305.875 72.5739C305.047 72.1241 304.4 71.5109 303.936 70.7344C303.472 69.9579 303.24 69.0748 303.24 68.0852V58.4545H304.569V67.9929C304.569 68.7647 304.741 69.4536 305.087 70.0597C305.433 70.661 305.918 71.1345 306.543 71.4801C307.173 71.8258 307.909 71.9986 308.752 71.9986C309.595 71.9986 310.331 71.8258 310.961 71.4801C311.59 71.1345 312.076 70.661 312.417 70.0597C312.762 69.4536 312.935 68.7647 312.935 67.9929V58.4545ZM319.125 66.1818V73H317.86V62.0909H319.089V63.8026H319.203C319.458 63.2438 319.856 62.7964 320.396 62.4602C320.94 62.1193 321.613 61.9489 322.413 61.9489C323.147 61.9489 323.791 62.1027 324.345 62.4105C324.904 62.7135 325.337 63.161 325.645 63.7528C325.957 64.3447 326.113 65.0715 326.113 65.9332V73H324.849V66.0114C324.849 65.1165 324.598 64.4086 324.096 63.8878C323.599 63.367 322.931 63.1065 322.093 63.1065C321.52 63.1065 321.011 63.2296 320.566 63.4759C320.121 63.7221 319.769 64.0772 319.508 64.5412C319.252 65.0005 319.125 65.5473 319.125 66.1818ZM329.457 73V62.0909H330.728V73H329.457ZM330.103 60.2159C329.843 60.2159 329.62 60.1283 329.435 59.9531C329.251 59.7732 329.158 59.5578 329.158 59.3068C329.158 59.0559 329.251 58.8428 329.435 58.6676C329.62 58.4877 329.843 58.3977 330.103 58.3977C330.363 58.3977 330.586 58.4877 330.771 58.6676C330.955 58.8428 331.048 59.0559 331.048 59.3068C331.048 59.5578 330.955 59.7732 330.771 59.9531C330.586 60.1283 330.363 60.2159 330.103 60.2159ZM338.368 62.0909V63.1918H333.162V62.0909H338.368ZM334.789 59.4773H336.06V70.152C336.06 70.6065 336.138 70.964 336.294 71.2244C336.451 71.4801 336.654 71.6624 336.905 71.7713C337.156 71.8755 337.424 71.9276 337.708 71.9276C337.873 71.9276 338.016 71.9181 338.134 71.8991C338.252 71.8755 338.356 71.8518 338.446 71.8281L338.716 72.9716C338.593 73.0189 338.442 73.0616 338.262 73.0994C338.082 73.142 337.859 73.1634 337.594 73.1634C337.13 73.1634 336.683 73.0616 336.252 72.858C335.826 72.6544 335.475 72.3513 335.201 71.9489C334.926 71.5464 334.789 71.0469 334.789 70.4503V59.4773ZM345.533 73.2273C344.515 73.2273 343.634 72.9905 342.891 72.517C342.147 72.0388 341.572 71.3783 341.165 70.5355C340.762 69.688 340.561 68.7126 340.561 67.6094C340.561 66.5109 340.762 65.5355 341.165 64.6832C341.572 63.8262 342.133 63.1562 342.848 62.6733C343.568 62.1856 344.399 61.9418 345.341 61.9418C345.933 61.9418 346.503 62.0507 347.053 62.2685C347.602 62.4815 348.094 62.8106 348.53 63.2557C348.97 63.696 349.318 64.2524 349.574 64.9247C349.83 65.5923 349.957 66.383 349.957 67.2969V67.9219H341.435V66.8068H348.665C348.665 66.1061 348.523 65.4763 348.239 64.9176C347.959 64.3542 347.569 63.9091 347.067 63.5824C346.57 63.2557 345.994 63.0923 345.341 63.0923C344.65 63.0923 344.041 63.277 343.516 63.6463C342.99 64.0156 342.578 64.5033 342.28 65.1094C341.986 65.7154 341.837 66.3783 341.832 67.098V67.7656C341.832 68.6321 341.982 69.3897 342.28 70.0384C342.583 70.6823 343.011 71.1818 343.565 71.5369C344.119 71.892 344.775 72.0696 345.533 72.0696C346.049 72.0696 346.501 71.9891 346.889 71.8281C347.282 71.6671 347.611 71.4517 347.876 71.1818C348.146 70.9072 348.35 70.6065 348.487 70.2798L349.688 70.6705C349.522 71.1297 349.25 71.5535 348.871 71.9418C348.497 72.33 348.028 72.6425 347.464 72.8793C346.906 73.1113 346.262 73.2273 345.533 73.2273ZM356.671 73.2273C355.776 73.2273 354.992 72.9905 354.32 72.517C353.648 72.0436 353.122 71.383 352.743 70.5355C352.369 69.688 352.182 68.7008 352.182 67.5739C352.182 66.4517 352.369 65.4692 352.743 64.6264C353.122 63.7789 353.65 63.1207 354.327 62.652C355.004 62.1785 355.792 61.9418 356.692 61.9418C357.355 61.9418 357.907 62.0601 358.347 62.2969C358.787 62.5289 359.14 62.8177 359.405 63.1634C359.67 63.509 359.876 63.8452 360.023 64.1719H360.137V58.4545H361.408V73H360.172V70.9759H360.023C359.876 71.3073 359.668 71.6482 359.398 71.9986C359.128 72.3442 358.771 72.6354 358.326 72.8722C357.885 73.1089 357.334 73.2273 356.671 73.2273ZM356.82 72.0696C357.525 72.0696 358.127 71.8778 358.624 71.4943C359.121 71.1061 359.5 70.5734 359.76 69.8963C360.025 69.2145 360.158 68.4332 360.158 67.5526C360.158 66.6813 360.028 65.9119 359.767 65.2443C359.507 64.572 359.128 64.0464 358.631 63.6676C358.134 63.2841 357.53 63.0923 356.82 63.0923C356.091 63.0923 355.475 63.2912 354.973 63.6889C354.476 64.0819 354.097 64.6146 353.837 65.2869C353.581 65.9593 353.453 66.7145 353.453 67.5526C353.453 68.4001 353.584 69.1648 353.844 69.8466C354.105 70.5284 354.483 71.0705 354.98 71.473C355.482 71.8707 356.096 72.0696 356.82 72.0696ZM378.794 62.0909C378.714 61.2812 378.356 60.6373 377.722 60.1591C377.087 59.6809 376.29 59.4418 375.328 59.4418C374.651 59.4418 374.055 59.5578 373.539 59.7898C373.027 60.0218 372.625 60.3437 372.331 60.7557C372.042 61.1629 371.898 61.6269 371.898 62.1477C371.898 62.5312 371.981 62.8674 372.147 63.1562C372.312 63.4451 372.535 63.6937 372.814 63.902C373.098 64.1056 373.411 64.2808 373.752 64.4276C374.097 64.5743 374.445 64.6974 374.796 64.7969L376.33 65.2372C376.794 65.3651 377.258 65.5284 377.722 65.7273C378.186 65.9261 378.61 66.1771 378.993 66.4801C379.382 66.7784 379.692 67.1454 379.924 67.581C380.16 68.0118 380.279 68.5303 380.279 69.1364C380.279 69.9129 380.078 70.6113 379.675 71.2315C379.273 71.8518 378.695 72.3442 377.942 72.7088C377.189 73.0687 376.287 73.2486 375.236 73.2486C374.247 73.2486 373.387 73.0852 372.658 72.7585C371.929 72.4271 371.356 71.9702 370.939 71.3878C370.523 70.8054 370.288 70.1307 370.236 69.3636H371.6C371.647 69.9366 371.837 70.4219 372.168 70.8196C372.499 71.2173 372.93 71.5204 373.461 71.7287C373.991 71.9323 374.583 72.0341 375.236 72.0341C375.961 72.0341 376.605 71.9134 377.168 71.6719C377.736 71.4257 378.181 71.0848 378.503 70.6491C378.83 70.2088 378.993 69.6974 378.993 69.1151C378.993 68.6226 378.865 68.2107 378.61 67.8793C378.354 67.5431 377.997 67.2614 377.537 67.0341C377.083 66.8068 376.555 66.6056 375.953 66.4304L374.213 65.919C373.072 65.5781 372.187 65.107 371.557 64.5057C370.927 63.9044 370.613 63.1373 370.613 62.2045C370.613 61.4233 370.821 60.7367 371.238 60.1449C371.659 59.5483 372.227 59.0843 372.942 58.7528C373.662 58.4167 374.469 58.2486 375.364 58.2486C376.268 58.2486 377.069 58.4143 377.765 58.7457C378.461 59.0772 379.012 59.5341 379.419 60.1165C379.831 60.6941 380.051 61.3523 380.08 62.0909H378.794ZM387.509 62.0909V63.1918H382.303V62.0909H387.509ZM383.929 59.4773H385.201V70.152C385.201 70.6065 385.279 70.964 385.435 71.2244C385.591 71.4801 385.795 71.6624 386.046 71.7713C386.297 71.8755 386.564 71.9276 386.848 71.9276C387.014 71.9276 387.156 71.9181 387.275 71.8991C387.393 71.8755 387.497 71.8518 387.587 71.8281L387.857 72.9716C387.734 73.0189 387.582 73.0616 387.402 73.0994C387.222 73.142 387 73.1634 386.735 73.1634C386.271 73.1634 385.823 73.0616 385.392 72.858C384.966 72.6544 384.616 72.3513 384.341 71.9489C384.067 71.5464 383.929 71.0469 383.929 70.4503V59.4773ZM393.427 73.2486C392.769 73.2486 392.167 73.1207 391.623 72.8651C391.078 72.6046 390.645 72.2306 390.323 71.7429C390.001 71.2505 389.84 70.6539 389.84 69.9531C389.84 69.4134 389.942 68.9588 390.146 68.5895C390.349 68.2202 390.638 67.9171 391.012 67.6804C391.386 67.4437 391.829 67.2566 392.34 67.1193C392.852 66.982 393.415 66.8755 394.031 66.7997C394.641 66.724 395.157 66.6577 395.579 66.6009C396.005 66.544 396.329 66.4541 396.552 66.331C396.774 66.2079 396.886 66.009 396.886 65.7344V65.4787C396.886 64.7353 396.663 64.1506 396.218 63.7244C395.778 63.2936 395.143 63.0781 394.315 63.0781C393.529 63.0781 392.887 63.2509 392.39 63.5966C391.897 63.9422 391.552 64.3494 391.353 64.8182L390.153 64.3849C390.399 63.7884 390.74 63.3125 391.175 62.9574C391.611 62.5975 392.099 62.3395 392.638 62.1832C393.178 62.0223 393.725 61.9418 394.279 61.9418C394.696 61.9418 395.129 61.9962 395.579 62.1051C396.033 62.214 396.455 62.4034 396.843 62.6733C397.231 62.9384 397.546 63.3101 397.788 63.7884C398.029 64.2618 398.15 64.8632 398.15 65.5923V73H396.886V71.2741H396.808C396.656 71.5961 396.431 71.9086 396.133 72.2116C395.835 72.5147 395.46 72.7633 395.011 72.9574C394.561 73.1515 394.033 73.2486 393.427 73.2486ZM393.597 72.0909C394.27 72.0909 394.852 71.9418 395.344 71.6435C395.837 71.3452 396.216 70.9498 396.481 70.4574C396.751 69.9602 396.886 69.4134 396.886 68.8168V67.2401C396.791 67.33 396.632 67.4105 396.41 67.4815C396.192 67.5526 395.939 67.6165 395.65 67.6733C395.366 67.7254 395.082 67.7704 394.798 67.8082C394.513 67.8461 394.258 67.8793 394.031 67.9077C393.415 67.9834 392.889 68.1018 392.454 68.2628C392.018 68.4238 391.684 68.6463 391.452 68.9304C391.22 69.2098 391.104 69.5696 391.104 70.0099C391.104 70.6728 391.341 71.1866 391.815 71.5511C392.288 71.911 392.882 72.0909 393.597 72.0909ZM405.81 62.0909V63.1918H400.604V62.0909H405.81ZM402.23 59.4773H403.501V70.152C403.501 70.6065 403.58 70.964 403.736 71.2244C403.892 71.4801 404.096 71.6624 404.347 71.7713C404.598 71.8755 404.865 71.9276 405.149 71.9276C405.315 71.9276 405.457 71.9181 405.575 71.8991C405.694 71.8755 405.798 71.8518 405.888 71.8281L406.158 72.9716C406.035 73.0189 405.883 73.0616 405.703 73.0994C405.523 73.142 405.301 73.1634 405.036 73.1634C404.571 73.1634 404.124 73.0616 403.693 72.858C403.267 72.6544 402.917 72.3513 402.642 71.9489C402.367 71.5464 402.23 71.0469 402.23 70.4503V59.4773ZM412.974 73.2273C411.956 73.2273 411.075 72.9905 410.332 72.517C409.589 72.0388 409.013 71.3783 408.606 70.5355C408.204 69.688 408.002 68.7126 408.002 67.6094C408.002 66.5109 408.204 65.5355 408.606 64.6832C409.013 63.8262 409.574 63.1562 410.289 62.6733C411.009 62.1856 411.84 61.9418 412.782 61.9418C413.374 61.9418 413.945 62.0507 414.494 62.2685C415.043 62.4815 415.536 62.8106 415.971 63.2557C416.412 63.696 416.76 64.2524 417.015 64.9247C417.271 65.5923 417.399 66.383 417.399 67.2969V67.9219H408.876V66.8068H416.106C416.106 66.1061 415.964 65.4763 415.68 64.9176C415.401 64.3542 415.01 63.9091 414.508 63.5824C414.011 63.2557 413.436 63.0923 412.782 63.0923C412.091 63.0923 411.483 63.277 410.957 63.6463C410.431 64.0156 410.02 64.5033 409.721 65.1094C409.428 65.7154 409.279 66.3783 409.274 67.098V67.7656C409.274 68.6321 409.423 69.3897 409.721 70.0384C410.024 70.6823 410.453 71.1818 411.007 71.5369C411.561 71.892 412.217 72.0696 412.974 72.0696C413.49 72.0696 413.942 71.9891 414.331 71.8281C414.724 71.6671 415.053 71.4517 415.318 71.1818C415.588 70.9072 415.791 70.6065 415.929 70.2798L417.129 70.6705C416.963 71.1297 416.691 71.5535 416.312 71.9418C415.938 72.33 415.469 72.6425 414.906 72.8793C414.347 73.1113 413.703 73.2273 412.974 73.2273ZM427.514 64.4844L426.357 64.8111C426.243 64.4844 426.082 64.1884 425.874 63.9233C425.665 63.6581 425.393 63.4474 425.057 63.2912C424.725 63.1349 424.313 63.0568 423.821 63.0568C423.082 63.0568 422.476 63.232 422.003 63.5824C421.529 63.9328 421.293 64.3849 421.293 64.9389C421.293 65.4077 421.454 65.7888 421.776 66.0824C422.102 66.3712 422.604 66.6009 423.281 66.7713L424.929 67.1761C425.843 67.3987 426.527 67.7514 426.982 68.2344C427.441 68.7173 427.67 69.3234 427.67 70.0526C427.67 70.6681 427.5 71.215 427.159 71.6932C426.818 72.1714 426.342 72.5478 425.732 72.8224C425.125 73.0923 424.422 73.2273 423.622 73.2273C422.557 73.2273 421.679 72.9882 420.987 72.5099C420.296 72.027 419.853 71.331 419.659 70.4219L420.874 70.1236C421.03 70.7723 421.335 71.2623 421.79 71.5938C422.249 71.9252 422.853 72.0909 423.601 72.0909C424.439 72.0909 425.109 71.9039 425.611 71.5298C426.113 71.151 426.364 70.6776 426.364 70.1094C426.364 69.669 426.217 69.2997 425.923 69.0014C425.63 68.6984 425.185 68.4759 424.588 68.3338L422.805 67.9077C421.858 67.6804 421.158 67.3205 420.703 66.8281C420.249 66.3357 420.021 65.7249 420.021 64.9957C420.021 64.3944 420.185 63.8665 420.511 63.4119C420.838 62.9527 421.288 62.5928 421.861 62.3324C422.434 62.072 423.087 61.9418 423.821 61.9418C424.82 61.9418 425.618 62.169 426.214 62.6236C426.816 63.0734 427.249 63.6937 427.514 64.4844Z" fill="white"/>
<defs>
<linearGradient id="paint0_linear_1185_9170" x1="586.022" y1="52" x2="0.00144009" y2="50.8013" gradientUnits="userSpaceOnUse">
<stop stop-color="#666666"/>
<stop offset="0.608077"/>
</linearGradient>
<clipPath id="clip0_1185_9170">
<rect width="104" height="43" fill="white" transform="translate(20 27)"/>
</clipPath>
</defs>
</svg>
